<svg width="610" height="250" viewBox="0 0 610 250" fill="none" xmlns="http://www.w3.org/2000/svg">
<g opacity="0.08">
<path d="M574.095 121.614C579.051 118.506 583.016 114.065 586.1 108.737C593.259 105.184 599.206 100.078 603.392 93.639C607.687 86.8672 610 78.6523 610 69.2163C610 59.0031 607.577 50.3441 603.061 43.3503C598.656 36.5786 592.378 31.3611 584.888 27.9197C581.694 22.7021 577.73 18.2616 572.884 15.2643C567.817 12.0449 561.87 10.2687 555.261 10.2687C548.323 10.2687 542.265 12.0449 537.199 15.2643C532.353 18.3726 528.498 22.7021 525.634 27.9197C518.255 31.3611 512.197 36.5786 508.122 43.3503C503.827 50.4551 501.624 59.1141 501.624 69.2163C501.624 78.8744 503.827 87.3113 508.122 94.0831C512.197 100.633 518.255 105.739 525.634 109.181C528.608 114.398 532.463 118.728 537.309 121.725C542.375 124.945 548.433 126.721 555.261 126.721C562.641 126.61 568.918 124.833 574.095 121.614ZM522.66 69.1053C522.66 54.3406 524.974 41.3521 529.599 32.1381C536.538 29.1408 545.239 27.5866 555.261 27.5866C565.064 27.5866 573.765 29.1407 580.923 32.2491C586.1 41.5741 588.964 54.5626 588.964 69.2163C588.964 82.9818 586.651 95.3041 582.135 104.407C574.646 107.627 565.504 109.514 555.261 109.514C545.349 109.514 536.538 107.96 529.599 104.962C524.974 95.6372 522.66 83.0928 522.66 69.1053Z" fill="black"/>
<path d="M1.32166 33.0718H124.566C115.975 76.0336 96.3707 98.7911 77.0965 121.771C60.7961 132.872 44.4957 143.529 30.7285 158.849C16.9612 174.28 5.83731 194.484 0 224.235V246.549L161.903 246.216V216.908H37.7773C42.6234 172.503 60.9063 149.857 80.8412 126.1C110.909 105.896 143.179 83.1384 161.793 27.8542L161.903 27.4102V4.20858H1.32166V33.0718Z" fill="black"/>
<path d="M329.974 131.772C320.392 124.556 308.828 120.226 297.814 117.562C307.947 115.231 318.41 111.456 327 105.351C337.574 97.8019 345.283 86.1456 345.283 69.8268C345.283 61.1678 342.199 52.8419 336.362 45.6261C330.635 38.6323 322.375 32.7487 311.471 28.4192C307.726 18.206 301.669 11.1012 294.4 6.54973C286.8 1.88721 277.989 0 269.068 0C260.808 0 251.776 1.44316 243.516 5.99467C235.476 10.4352 228.207 17.762 223.361 28.9742C211.686 33.5257 202.214 39.9645 195.606 47.8464C188.777 55.9503 185.033 65.6083 185.033 75.8215C185.033 76.4875 185.033 77.2646 185.033 77.9307L185.143 80.595H222.7L222.369 77.4867C222.039 73.9343 222.039 70.2709 222.039 66.6075C222.039 52.6199 224.132 41.8517 227.436 33.3037C238.67 29.3073 252.327 26.754 267.526 26.754C283.386 26.754 296.382 28.8632 306.845 32.5266C308.828 39.0764 310.039 46.7362 310.039 56.0613C310.039 73.9343 304.202 84.4805 295.281 91.3632C286.36 98.246 273.694 101.132 260.037 101.909L254.309 102.242L251.666 102.353V132.66L260.037 133.104C273.914 133.881 287.681 136.656 297.704 144.76C307.726 152.753 314.665 166.075 314.775 189.498C314.775 199.489 313.564 207.926 311.251 215.031C300.127 219.028 286.47 221.137 270.94 221.137C254.64 221.137 240.322 219.25 228.207 215.253C226.334 209.147 225.453 201.821 225.453 192.829C225.453 188.055 225.453 183.171 226.114 177.953L226.555 174.734H187.896L187.676 177.287C187.566 178.175 187.566 179.063 187.566 179.951C187.566 189.498 191.421 197.935 198.029 204.596C204.417 211.035 213.228 216.03 223.801 219.583C227.766 231.017 234.485 238.788 242.525 243.45C250.895 248.335 260.587 250 269.949 250C279.751 250 289.223 247.78 297.373 242.673C305.193 237.678 311.691 230.018 315.766 219.25C326.119 214.92 334.6 208.925 340.547 201.044C346.715 192.94 350.019 182.948 350.019 171.403C349.909 153.53 341.429 140.431 329.974 131.772Z" fill="black"/>
<path d="M449.143 4.21847H414.23L414.009 6.77176C412.798 22.6465 407.842 36.5231 401.123 47.8464H359.271V84.4805H362.024C368.633 84.4805 376.122 81.2611 383.721 75.7105C390.88 70.3819 398.039 62.833 404.097 53.397H415.221V217.14H359.161V246.559H503.331V217.251H449.143V4.21847Z" fill="black"/>
</g>
</svg>
