<svg width="130" height="26" viewBox="0 0 130 26" fill="none" xmlns="http://www.w3.org/2000/svg">
<path d="M126.276 12.6198C126.79 12.2973 127.201 11.8365 127.521 11.2836C128.264 10.9149 128.881 10.385 129.315 9.71688C129.76 9.01418 130 8.16172 130 7.18255C130 6.12273 129.749 5.22419 129.28 4.49845C128.823 3.79574 128.172 3.25433 127.396 2.89722C127.064 2.35579 126.653 1.895 126.15 1.58397C125.625 1.24989 125.008 1.06558 124.323 1.06558C123.603 1.06558 122.975 1.24989 122.449 1.58397C121.947 1.90652 121.547 2.35579 121.25 2.89722C120.485 3.25433 119.856 3.79574 119.434 4.49845C118.988 5.23571 118.76 6.13425 118.76 7.18255C118.76 8.18476 118.988 9.06026 119.434 9.76296C119.856 10.4426 120.485 10.9725 121.25 11.3296C121.558 11.8711 121.958 12.3203 122.461 12.6314C122.986 12.9654 123.615 13.1498 124.323 13.1498C125.088 13.1382 125.739 12.9539 126.276 12.6198ZM120.942 7.17103C120.942 5.63891 121.181 4.29109 121.661 3.33496C122.381 3.02393 123.283 2.86265 124.323 2.86265C125.339 2.86265 126.242 3.02392 126.984 3.34647C127.521 4.31413 127.818 5.66194 127.818 7.18255C127.818 8.61099 127.578 9.88967 127.11 10.8343C126.333 11.1684 125.385 11.3642 124.323 11.3642C123.295 11.3642 122.381 11.2029 121.661 10.8919C121.181 9.92423 120.942 8.62251 120.942 7.17103Z" fill="black"/>
<path d="M0.137077 3.43288H12.9195C12.0285 7.89101 9.99517 10.2525 7.99613 12.6371C6.30552 13.7891 4.61491 14.895 3.18703 16.4847C1.75915 18.086 0.605422 20.1825 0 23.2698V25.5853L16.7919 25.5507V22.5095H3.91811C4.42072 17.9016 6.31695 15.5516 8.38452 13.0864C11.503 10.9898 14.85 8.62827 16.7805 2.89145L16.7919 2.84537V0.437749H0.137077V3.43288Z" fill="black"/>
<path d="M23.7142 14.1462C23.9656 14.1232 24.2283 14.1001 24.5024 14.1001H35.9598V11.0589H24.5024C24.2283 11.0589 23.9541 11.0589 23.7142 11.0474V3.54807H36.6223V0.437749H20.2188V7.71821C20.2188 8.8817 20.4016 9.80328 20.9156 10.4714C21.1783 10.8055 21.5096 11.0704 21.9208 11.2548C22.2749 11.416 22.6747 11.5197 23.1317 11.5888V13.6509C22.115 13.8582 21.3725 14.319 20.9042 14.9641C20.4016 15.6668 20.2074 16.5538 20.2074 17.5445V25.5853H36.965V22.475H23.7142V14.1462Z" fill="black"/>
<path d="M58.0976 10.8401C58.703 10.0567 59.0343 9.01994 59.0343 7.81037C59.0343 6.56624 58.6802 5.52946 58.0405 4.74612C57.4237 3.99734 56.5441 3.46743 55.4932 3.1564C55.2076 2.31546 54.7164 1.62428 53.9853 1.16349C53.2086 0.668144 52.1919 0.426229 50.8783 0.426229H40.3919V25.5853H43.9673V15.0908H53.9739C54.4194 15.0908 54.8421 15.1369 55.219 15.2175V25.5507H58.9315V19.3992C58.9315 18.086 58.6231 17.0261 58.0405 16.2428C57.5036 15.5055 56.7269 15.0102 55.8016 14.7568V12.3952C56.7497 12.0842 57.5379 11.5773 58.0976 10.8401ZM43.9673 12.0496V3.3292H52.4775C53.4027 3.3292 54.2595 3.42136 55.0248 3.62871C55.1619 4.15862 55.219 4.76916 55.219 5.46035V11.9229C54.8192 12.0035 54.4194 12.0496 53.9739 12.0496H43.9673Z" fill="black"/>
<path d="M79.5158 3.93974C78.8419 2.75321 77.9851 1.77404 76.9114 1.09437C75.8148 0.39167 74.5011 0.0115197 72.9819 0.0115197C71.3712 0.0115197 70.0004 0.40319 68.8581 1.11741C67.7387 1.82012 66.8591 2.82233 66.1623 4.04342C64.5288 4.83828 63.1809 5.96721 62.2556 7.43022C61.3075 8.91626 60.7935 10.7249 60.7935 12.833C60.7935 15.1023 61.3418 17.0261 62.3356 18.5698C63.318 20.0904 64.723 21.2424 66.4479 22.0372C67.1561 23.2468 68.0471 24.226 69.1323 24.9171C70.2403 25.6198 71.5311 26 72.9933 26C74.524 26 75.8376 25.6198 76.9456 24.9171C78.0194 24.2375 78.8876 23.2468 79.5387 22.0372C81.2293 21.2654 82.5772 20.1019 83.5025 18.5813C84.4392 17.0261 84.9418 15.1023 84.9418 12.833C84.9418 10.6673 84.4392 8.81258 83.5025 7.31502C82.5544 5.8405 81.2064 4.71156 79.5158 3.93974ZM79.0932 21.5879C77.414 22.3482 75.335 22.7169 72.9704 22.7169C70.6401 22.7169 68.5497 22.3482 66.8477 21.5879C65.5911 19.3762 64.9172 16.3004 64.9172 12.833C64.9172 9.57288 65.4541 6.66992 66.5735 4.49269C68.3555 3.69783 70.5487 3.26008 72.9704 3.26008C75.335 3.26008 77.414 3.62871 79.0932 4.38901C80.2469 6.56624 80.7838 9.53832 80.7838 12.833C80.7952 16.3004 80.2469 19.3762 79.0932 21.5879Z" fill="black"/>
<path d="M100.957 13.6739C99.9631 12.9251 98.7637 12.4759 97.6214 12.1994C98.6723 11.9575 99.7575 11.5658 100.648 10.9322C101.745 10.1489 102.545 8.9393 102.545 7.2459C102.545 6.34736 102.225 5.48338 101.619 4.7346C101.025 4.00886 100.169 3.39832 99.0378 2.94905C98.6494 1.88923 98.0212 1.15197 97.2673 0.679663C96.4791 0.195835 95.5652 0 94.6399 0C93.7832 0 92.8465 0.149756 91.9898 0.622065C91.1559 1.08285 90.402 1.84315 89.8994 3.00665C88.6885 3.47895 87.7062 4.1471 87.0208 4.965C86.3125 5.80594 85.9242 6.80815 85.9242 7.86797C85.9242 7.93708 85.9242 8.01772 85.9242 8.08684L85.9356 8.36331H89.8308L89.7966 8.04076C89.7623 7.67213 89.7623 7.29198 89.7623 6.91183C89.7623 5.46035 89.9793 4.34293 90.322 3.45591C91.4872 3.04121 92.9036 2.77625 94.48 2.77625C96.1249 2.77625 97.4729 2.99513 98.5581 3.37528C98.7637 4.05494 98.8893 4.8498 98.8893 5.81746C98.8893 7.67213 98.2839 8.7665 97.3586 9.48073C96.4334 10.1949 95.1197 10.4945 93.7033 10.5751L93.1093 10.6097L92.8351 10.6212V13.7661L93.7033 13.8121C95.1426 13.8928 96.5704 14.1808 97.6099 15.0217C98.6494 15.8511 99.3691 17.2335 99.3805 19.6642C99.3805 20.7009 99.2549 21.5764 99.015 22.3137C97.8612 22.7284 96.4448 22.9473 94.8341 22.9473C93.1435 22.9473 91.6585 22.7514 90.402 22.3367C90.2078 21.7031 90.1164 20.9428 90.1164 20.0097C90.1164 19.5144 90.1164 19.0075 90.185 18.4661L90.2307 18.132H86.2212L86.1983 18.397C86.1869 18.4891 86.1869 18.5813 86.1869 18.6735C86.1869 19.6642 86.5867 20.5397 87.2721 21.2308C87.9346 21.899 88.8485 22.4174 89.9451 22.786C90.3563 23.9725 91.0531 24.7789 91.887 25.2627C92.7551 25.7696 93.7604 25.9424 94.7313 25.9424C95.748 25.9424 96.7304 25.712 97.5757 25.1821C98.3867 24.6637 99.0607 23.8689 99.4833 22.7514C100.557 22.3022 101.437 21.6801 102.054 20.8622C102.693 20.0213 103.036 18.9845 103.036 17.7864C103.024 15.9318 102.145 14.5724 100.957 13.6739Z" fill="black"/>
<path d="M113.317 0.437749H109.696L109.673 0.702703C109.547 2.35002 109.033 3.78999 108.336 4.965H103.995V8.7665H104.281C104.966 8.7665 105.743 8.43243 106.531 7.85645C107.274 7.3035 108.016 6.52016 108.645 5.54098H109.798V22.5326H103.984V25.5853H118.937V22.5441H113.317V0.437749Z" fill="black"/>
</svg>
