<svg width="128" height="26" viewBox="0 0 128 26" fill="none" xmlns="http://www.w3.org/2000/svg">
<path d="M121.419 12.1345C121.914 11.8243 122.309 11.3813 122.617 10.8496C123.33 10.4951 123.924 9.9856 124.341 9.34316C124.769 8.66748 125 7.84781 125 6.90629C125 5.88724 124.758 5.02326 124.308 4.32543C123.869 3.64975 123.243 3.12916 122.496 2.78579C122.177 2.26518 121.782 1.82211 121.299 1.52304C120.793 1.20182 120.2 1.0246 119.541 1.0246C118.849 1.0246 118.245 1.20182 117.74 1.52304C117.256 1.83319 116.872 2.26518 116.586 2.78579C115.851 3.12916 115.246 3.64975 114.84 4.32543C114.412 5.03433 114.192 5.89832 114.192 6.90629C114.192 7.86996 114.412 8.71179 114.84 9.38747C115.246 10.041 115.851 10.5505 116.586 10.8939C116.883 11.4145 117.267 11.8465 117.751 12.1456C118.256 12.4668 118.86 12.644 119.541 12.644C120.277 12.6329 120.903 12.4557 121.419 12.1345ZM116.29 6.89522C116.29 5.42203 116.521 4.12605 116.982 3.20669C117.674 2.90762 118.542 2.75255 119.541 2.75255C120.519 2.75255 121.386 2.90762 122.1 3.21776C122.617 4.1482 122.902 5.44418 122.902 6.90629C122.902 8.2798 122.671 9.5093 122.221 10.4176C121.474 10.7388 120.563 10.9271 119.541 10.9271C118.553 10.9271 117.674 10.772 116.982 10.473C116.521 9.54253 116.29 8.29088 116.29 6.89522Z" fill="#E1EEF7"/>
<path d="M0.131804 3.30084H12.4226C11.5658 7.58751 9.61074 9.85822 7.68859 12.1511C6.063 13.2588 4.43741 14.3221 3.06445 15.8507C1.69149 17.3903 0.582136 19.4063 0 22.3748V24.6012L16.146 24.568V21.6438H3.76741C4.25069 17.2131 6.07399 14.9535 8.06204 12.5831C11.0606 10.5671 14.2788 8.29641 16.1351 2.78024L16.146 2.73593V0.420913H0.131804V3.30084Z" fill="#E1EEF7"/>
<path d="M22.8022 13.6021C23.0438 13.58 23.2964 13.5578 23.56 13.5578H34.5767V10.6336H23.56C23.2964 10.6336 23.0328 10.6336 22.8022 10.6225V3.41161H35.2137V0.420913H19.4411V7.42136C19.4411 8.5401 19.6169 9.42623 20.1112 10.0687C20.3638 10.3899 20.6823 10.6447 21.0777 10.8219C21.4182 10.977 21.8026 11.0767 22.242 11.1431V13.1258C21.2644 13.3252 20.5505 13.7683 20.1002 14.3886C19.6169 15.0642 19.4302 15.9171 19.4302 16.8697V24.6012H35.5433V21.6105H22.8022V13.6021Z" fill="#E1EEF7"/>
<path d="M55.8631 10.4231C56.4452 9.66992 56.7638 8.67302 56.7638 7.50997C56.7638 6.31369 56.4233 5.31679 55.8082 4.56358C55.2151 3.8436 54.3693 3.33407 53.3588 3.035C53.0842 2.22641 52.6119 1.56181 51.909 1.11874C51.1621 0.642446 50.1845 0.409836 48.9214 0.409836H38.8384V24.6012H42.2763V14.5104H51.898C52.3263 14.5104 52.7327 14.5547 53.0952 14.6323V24.568H56.6649V18.6531C56.6649 17.3903 56.3683 16.3713 55.8082 15.6181C55.2919 14.9092 54.5451 14.4329 53.6554 14.1892V11.9185C54.567 11.6194 55.3249 11.132 55.8631 10.4231ZM42.2763 11.5862V3.20115H50.4591C51.3488 3.20115 52.1726 3.28977 52.9085 3.48914C53.0403 3.99867 53.0952 4.58573 53.0952 5.25033V11.4643C52.7108 11.5419 52.3263 11.5862 51.898 11.5862H42.2763Z" fill="#E1EEF7"/>
<path d="M76.4575 3.78821C75.8095 2.64732 74.9857 1.7058 73.9532 1.05228C72.8988 0.376606 71.6357 0.0110766 70.1749 0.0110766C68.6262 0.0110766 67.3081 0.387683 66.2097 1.07443C65.1333 1.75011 64.2876 2.71378 63.6176 3.8879C62.0469 4.65219 60.7508 5.7377 59.8612 7.14444C58.9495 8.57333 58.4552 10.3124 58.4552 12.3394C58.4552 14.5215 58.9825 16.3713 59.938 17.8556C60.8826 19.3177 62.2336 20.4253 63.8922 21.1896C64.5732 22.3527 65.4299 23.2942 66.4734 23.9588C67.5388 24.6345 68.7799 25 70.1858 25C71.6577 25 72.9208 24.6345 73.9862 23.9588C75.0187 23.3053 75.8534 22.3527 76.4795 21.1896C78.1051 20.4475 79.4012 19.3288 80.2908 17.8666C81.1915 16.3713 81.6748 14.5215 81.6748 12.3394C81.6748 10.257 81.1915 8.47364 80.2908 7.03367C79.3792 5.61586 78.0831 4.53035 76.4575 3.78821ZM76.0511 20.7576C74.4365 21.4887 72.4375 21.8432 70.1639 21.8432C67.9232 21.8432 65.9132 21.4887 64.2766 20.7576C63.0684 18.6309 62.4204 15.6735 62.4204 12.3394C62.4204 9.2047 62.9366 6.41338 64.013 4.31989C65.7265 3.5556 67.8353 3.13469 70.1639 3.13469C72.4375 3.13469 74.4365 3.48914 76.0511 4.2202C77.1605 6.31369 77.6767 9.17147 77.6767 12.3394C77.6877 15.6735 77.1605 18.6309 76.0511 20.7576Z" fill="#E1EEF7"/>
<path d="M97.0739 13.148C96.1184 12.428 94.9651 11.996 93.8667 11.7302C94.8772 11.4976 95.9206 11.121 96.7774 10.5117C97.8318 9.75853 98.6007 8.59548 98.6007 6.96721C98.6007 6.10323 98.2931 5.27249 97.711 4.5525C97.1398 3.85467 96.3161 3.26761 95.2287 2.83562C94.8552 1.81657 94.2511 1.10767 93.5262 0.653522C92.7683 0.188303 91.8896 0 91 0C90.1762 0 89.2755 0.143996 88.4517 0.598139C87.6499 1.04121 86.925 1.77226 86.4417 2.89101C85.2774 3.34515 84.3328 3.98759 83.6738 4.77404C82.9928 5.58263 82.6194 6.5463 82.6194 7.56535C82.6194 7.63181 82.6194 7.70935 82.6194 7.77581L82.6304 8.04165H86.3758L86.3429 7.7315C86.3099 7.37705 86.3099 7.01152 86.3099 6.64599C86.3099 5.25033 86.5186 4.1759 86.8481 3.32299C87.9685 2.92424 89.3304 2.66947 90.8462 2.66947C92.4278 2.66947 93.7239 2.87993 94.7674 3.24546C94.9651 3.89898 95.0859 4.66327 95.0859 5.59371C95.0859 7.37705 94.5037 8.42933 93.6141 9.11608C92.7244 9.80283 91.4613 10.0908 90.0993 10.1684L89.5281 10.2016L89.2645 10.2127V13.2366L90.0993 13.2809C91.4832 13.3584 92.8562 13.6354 93.8557 14.444C94.8552 15.2415 95.5472 16.5707 95.5582 18.9078C95.5582 19.9047 95.4374 20.7466 95.2067 21.4555C94.0974 21.8542 92.7354 22.0647 91.1867 22.0647C89.5611 22.0647 88.1332 21.8764 86.925 21.4776C86.7383 20.8684 86.6504 20.1374 86.6504 19.2401C86.6504 18.7638 86.6504 18.2765 86.7163 17.7559L86.7602 17.4346H82.905L82.883 17.6894C82.872 17.778 82.872 17.8666 82.872 17.9552C82.872 18.9078 83.2564 19.7497 83.9155 20.4143C84.5525 21.0567 85.4312 21.5552 86.4857 21.9096C86.8811 23.0505 87.5511 23.8259 88.3529 24.2911C89.1876 24.7785 90.1542 24.9446 91.0878 24.9446C92.0654 24.9446 93.01 24.7231 93.8228 24.2136C94.6026 23.7151 95.2506 22.9508 95.657 21.8764C96.6895 21.4444 97.5353 20.8463 98.1284 20.0598C98.7435 19.2512 99.073 18.2543 99.073 17.1023C99.062 15.319 98.2162 14.012 97.0739 13.148Z" fill="#E1EEF7"/>
<path d="M108.958 0.420913H105.476L105.454 0.675676C105.334 2.25964 104.839 3.64422 104.169 4.77404H99.9956V8.42933H100.27C100.929 8.42933 101.676 8.10811 102.434 7.55428C103.148 7.0226 103.862 6.26938 104.466 5.32787H105.575V21.6659H99.9846V24.6012H114.362V21.677H108.958V0.420913Z" fill="#E1EEF7"/>
</svg>
