<svg width="130" height="26" viewBox="0 0 130 26" fill="none" xmlns="http://www.w3.org/2000/svg">
<path d="M59.5428 12.6198C60.0568 12.2973 60.468 11.8365 60.7879 11.2836C61.5304 10.9149 62.1472 10.385 62.5813 9.71688C63.0268 9.01418 63.2667 8.16172 63.2667 7.18255C63.2667 6.12273 63.0154 5.22419 62.547 4.49845C62.0901 3.79574 61.439 3.25433 60.6622 2.89722C60.3309 2.35579 59.9197 1.895 59.4171 1.58397C58.8916 1.24989 58.2748 1.06558 57.5894 1.06558C56.8698 1.06558 56.2415 1.24989 55.716 1.58397C55.2134 1.90652 54.8136 2.35579 54.5166 2.89722C53.7513 3.25433 53.123 3.79574 52.7003 4.49845C52.2549 5.23571 52.0264 6.13425 52.0264 7.18255C52.0264 8.18476 52.2549 9.06026 52.7003 9.76296C53.123 10.4426 53.7513 10.9725 54.5166 11.3296C54.825 11.8711 55.2248 12.3203 55.7275 12.6314C56.2529 12.9654 56.8812 13.1498 57.5894 13.1498C58.3548 13.1382 59.0059 12.9539 59.5428 12.6198ZM54.2082 7.17103C54.2082 5.63891 54.4481 4.29109 54.9278 3.33496C55.6475 3.02393 56.5499 2.86265 57.5894 2.86265C58.6061 2.86265 59.5085 3.02392 60.251 3.34647C60.7879 4.31413 61.0849 5.66194 61.0849 7.18255C61.0849 8.61099 60.845 9.88967 60.3766 10.8343C59.5999 11.1684 58.6518 11.3642 57.5894 11.3642C56.5613 11.3642 55.6475 11.2029 54.9278 10.8919C54.4481 9.92423 54.2082 8.62251 54.2082 7.17103Z" fill="black"/>
<path d="M0.137077 3.43185H12.9195C12.0285 7.88998 9.99517 10.2515 7.99613 12.6361C6.30552 13.7881 4.61491 14.894 3.18703 16.4837C1.75915 18.0849 0.605422 20.1815 0 23.2688V25.5843L16.7919 25.5497V22.5085H3.91811C4.42072 17.9006 6.31695 15.5506 8.38452 13.0854C11.503 10.9888 14.85 8.62724 16.7805 2.89042L16.7919 2.84434V0.436722H0.137077V3.43185Z" fill="black"/>
<path d="M34.2236 13.6739C33.2298 12.9251 32.0303 12.4759 30.888 12.1994C31.9389 11.9575 33.0241 11.5658 33.9151 10.9322C35.0117 10.1489 35.8114 8.9393 35.8114 7.2459C35.8114 6.34736 35.4915 5.48338 34.8861 4.7346C34.2921 4.00886 33.4354 3.39832 32.3045 2.94905C31.9161 1.88923 31.2878 1.15197 30.5339 0.679663C29.7457 0.195835 28.8319 0 27.9066 0C27.0499 0 26.1132 0.149756 25.2565 0.622065C24.4226 1.08285 23.6687 1.84315 23.1661 3.00665C21.9552 3.47895 20.9728 4.1471 20.2874 4.965C19.5792 5.80594 19.1908 6.80815 19.1908 7.86797C19.1908 7.93708 19.1908 8.01772 19.1908 8.08684L19.2023 8.36331H23.0975L23.0632 8.04076C23.029 7.67213 23.029 7.29198 23.029 6.91183C23.029 5.46035 23.246 4.34293 23.5887 3.45591C24.7539 3.04121 26.1703 2.77625 27.7467 2.77625C29.3916 2.77625 30.7395 2.99513 31.8247 3.37528C32.0303 4.05494 32.156 4.8498 32.156 5.81746C32.156 7.67213 31.5506 8.7665 30.6253 9.48073C29.7 10.1949 28.3864 10.4945 26.9699 10.5751L26.3759 10.6097L26.1018 10.6212V13.7661L26.9699 13.8121C28.4092 13.8928 29.8371 14.1808 30.8766 15.0217C31.9161 15.8511 32.6358 17.2335 32.6472 19.6642C32.6472 20.7009 32.5215 21.5764 32.2816 22.3137C31.1279 22.7284 29.7115 22.9473 28.1008 22.9473C26.4102 22.9473 24.9252 22.7514 23.6687 22.3367C23.4745 21.7031 23.3831 20.9428 23.3831 20.0097C23.3831 19.5144 23.3831 19.0075 23.4516 18.4661L23.4973 18.132H19.4878L19.465 18.397C19.4536 18.4891 19.4536 18.5813 19.4536 18.6735C19.4536 19.6642 19.8534 20.5397 20.5387 21.2308C21.2013 21.899 22.1151 22.4174 23.2117 22.786C23.623 23.9725 24.3198 24.7789 25.1537 25.2627C26.0218 25.7696 27.027 25.9424 27.998 25.9424C29.0147 25.9424 29.997 25.712 30.8423 25.1821C31.6534 24.6637 32.3273 23.8689 32.75 22.7514C33.8238 22.3022 34.7033 21.6801 35.3202 20.8622C35.9599 20.0213 36.3026 18.9845 36.3026 17.7864C36.2911 15.9318 35.4116 14.5724 34.2236 13.6739Z" fill="black"/>
<path d="M46.5833 0.437749H42.9622L42.9393 0.702703C42.8137 2.35002 42.2997 3.78999 41.6029 4.965H37.2621V8.7665H37.5477C38.2331 8.7665 39.0098 8.43243 39.798 7.85645C40.5405 7.3035 41.283 6.52016 41.9113 5.54098H43.065V22.5326H37.2507V25.5853H52.2034V22.5441H46.5833V0.437749Z" fill="black"/>
</svg>
